# xmcd CD database file
#
# Track frame offsets:
#	150
#	1777
#	23696
#	24647
#	41196
#	56255
#	78201
#	79390
#	95528
#	129676
#	148539
#	148935
#	168904
#	184893
#	200749
#	201165
#	218461
#	224323
#	252459
#
# Disc length: 3706 seconds
#
# Revision: 0
# Processed by: cddbd v1.5.1PL0 Copyright (c) Steve Scherf et al.
# Submitted via: CDex 1.60beta1
#
DISCID=110e7813
DTITLE=Mojo Deluxe - Side Dishes
DYEAR=2001
DGENRE=Blues
TTITLE0=Day Jobs
TTITLE1=Fattback
TTITLE2=Old Whiskey, Young Ice
TTITLE3=Unlock My Heart
TTITLE4=Why Do You Treat Your Daddy Mean?
TTITLE5=I Can't Quit Your Love
TTITLE6=Wrong Turn
TTITLE7=Habanero Hop
TTITLE8=Finders, Keepers
TTITLE9=Pork Rinds
TTITLE10=G. Dickel
TTITLE11=I Ain't Over You Yet
TTITLE12=Oven Lovin'
TTITLE13=You Missed Me
TTITLE14=BS
TTITLE15=Roasted Chiles
TTITLE16=Soul Food (Piano Party Interlude)
TTITLE17=Blind
TTITLE18=Elixir
EXTD=YEAR: 2001
EXTT0=
EXTT1=
EXTT2=
EXTT3=
EXTT4=
EXTT5=
EXTT6=
EXTT7=
EXTT8=
EXTT9=
EXTT10=
EXTT11=
EXTT12=
EXTT13=
EXTT14=
EXTT15=
EXTT16=
EXTT17=
EXTT18=
PLAYORDER=
